<svg xmlns="http://www.w3.org/2000/svg" width="159.92" height="165.32" viewBox="0 0 159.92 165.32"><defs><style>.cls-1{fill:#8ce8db;}</style></defs><g id="Layer_2" data-name="Layer 2"><g id="Layer_6" data-name="Layer 6"><path class="cls-1" d="M147.85,94.75A59,59,0,0,0,56.53,20.17c-.22.24-.45.47-.66.73L3.37,85.18a15,15,0,1,0,23.23,19L31,98.74a15,15,0,0,0,23.23,19l5.42-6.64a15,15,0,0,0,26.39,12L71.52,140.85a15,15,0,1,0,23.24,19l52.5-64.29C147.47,95.29,147.65,95,147.85,94.75Z"/><path d="M56.55,45.48a19,19,0,0,1,37.16,8.34"/><path d="M108.19,57.07a19,19,0,1,1,37.15,8.34"/><circle class="cls-1" cx="74.91" cy="50.71" r="9"/><circle class="cls-1" cx="126.91" cy="62.71" r="9"/></g></g></svg>